<?xml version="1.0" standalone="no"?>
<!DOCTYPE svg PUBLIC "-//W3C//DTD SVG 20010904//EN"
 "http://www.w3.org/TR/2001/REC-SVG-20010904/DTD/svg10.dtd">
<svg version="1.0" xmlns="http://www.w3.org/2000/svg"
 width="680.000000pt" height="680.000000pt" viewBox="0 0 680.000000 680.000000"
 preserveAspectRatio="xMidYMid meet">
<metadata>
Created by potrace 1.11, written by Peter Selinger 2001-2013
</metadata>
<g transform="translate(0.000000,680.000000) scale(0.100000,-0.100000)"
fill="#000000" stroke="none">
<path d="M3073 6154 c-501 -60 -964 -247 -1373 -552 -152 -114 -429 -391 -542
-542 -408 -547 -607 -1198 -568 -1856 25 -412 110 -735 290 -1099 142 -289
302 -509 539 -745 435 -433 953 -694 1571 -791 125 -20 182 -23 410 -23 228 0
285 3 410 23 618 97 1136 358 1571 791 237 236 397 456 539 745 180 364 265
687 290 1099 39 658 -160 1309 -568 1856 -113 151 -390 428 -542 542 -415 309
-875 493 -1386 553 -158 18 -485 18 -641 -1z m1074 -2604 c530 -855 969 -1563
974 -1572 9 -17 -15 -18 -454 -18 l-464 0 -313 507 c-173 280 -330 534 -350
566 l-37 57 -329 -565 -329 -565 -462 0 c-255 0 -463 2 -463 4 0 2 240 371
534 819 294 449 562 859 596 911 l61 94 -392 609 c-216 334 -407 632 -426 661
l-34 52 462 -2 462 -3 964 -1555z"/>
</g>
</svg>
